<svg width="38" height="43" viewBox="0 0 38 43" fill="none" xmlns="http://www.w3.org/2000/svg">
<path fill-rule="evenodd" clip-rule="evenodd" d="M18.6703 0L28.0065 5.37476L37.3407 10.7495V16.6765L22.9601 8.3966L18.6703 5.92701L5.14775 13.713V21.1296V17.6916L9.33614 15.2803L18.6703 9.90363L28.0065 15.2803L32.1949 17.6916L37.3407 20.6551V21.499V32.2505L33.6924 34.3506L28.5447 31.3871L25.0036 29.3492L18.6703 25.7012L8.79602 31.3871L18.6703 37.073L25.1206 33.3589L30.2684 36.3224L28.0065 37.6252L18.6703 43L9.33614 37.6252L0 32.2505V30.5587L5.14775 27.5952V27.5602L9.33614 25.149L18.6703 19.7742L28.0065 25.149L32.1929 27.5622L32.1949 29.287V17.6916V23.6186L18.6703 15.8326L5.14775 23.6186L0 26.5821V21.499V10.7495L9.33614 5.37476L18.6703 0Z" fill="white"/>
</svg>
