<svg width="24" height="24" viewBox="0 0 24 24" fill="none" xmlns="http://www.w3.org/2000/svg">
<path d="M19.266 13.516C19.4975 13.3369 19.6849 13.1071 19.8138 12.8443C19.9427 12.5815 20.0097 12.2927 20.0097 12C20.0097 11.7073 19.9427 11.4185 19.8138 11.1557C19.6849 10.8929 19.4975 10.6631 19.266 10.484C16.2686 8.16463 12.9215 6.33648 9.35002 5.068L8.69702 4.836C7.44902 4.393 6.13002 5.237 5.96102 6.526C5.48891 10.1601 5.48891 13.8399 5.96102 17.474C6.13102 18.763 7.44902 19.607 8.69702 19.164L9.35002 18.932C12.9215 17.6635 16.2686 15.8354 19.266 13.516Z" fill="#85E364"/>
</svg>
